<svg width="20" height="20" viewBox="0 0 20 20" xmlns="http://www.w3.org/2000/svg"><path d="M6.91631 2h6.16738c1.43405 0 2.13197.13477 2.85738.52273.66033.35315 1.18305.87587 1.5362 1.5362C17.86522 4.78434 18 5.48226 18 6.9163v6.16738c0 1.43405-.13478 2.13197-.52273 2.85738-.35315.66033-.87587 1.18305-1.5362 1.5362-.72541.38795-1.42333.52273-2.85738.52273H6.9163c-1.43405 0-2.13197-.13478-2.85738-.52273-.66033-.35315-1.18305-.87587-1.5362-1.5362C2.13477 15.21566 2 14.51774 2 13.0837V6.9163c0-1.43405.13477-2.13197.52273-2.85738.35315-.66033.87587-1.18305 1.5362-1.5362C4.78434 2.13477 5.48226 2 6.9163 2zm0 1.5c-1.2076 0-1.67159.0896-2.14999.34545-.39892.21335-.70752.52195-.92087.92087-.25585.4784-.34545.94239-.34545 2.15v6.16737c0 1.2076.0896 1.67159.34545 2.14999.21335.39892.52195.70752.92087.92087.4784.25585.94239.34545 2.15.34545h6.16737c1.2076 0 1.67159-.0896 2.14999-.34545.39892-.21335.70752-.52195.92087-.92087.25585-.4784.34545-.94239.34545-2.15V6.91632c0-1.2076-.0896-1.67159-.34545-2.14999-.21335-.39892-.52195-.70752-.92087-.92087-.4784-.25585-.94239-.34545-2.15-.34545H6.91632zM6.75 6h6.5c.41421 0 .75.33579.75.75s-.33579.75-.75.75h-6.5c-.41421 0-.75-.33579-.75-.75S6.33579 6 6.75 6zm0 3.25h6.5c.41421 0 .75.33579.75.75s-.33579.75-.75.75h-6.5c-.41421 0-.75-.33579-.75-.75s.33579-.75.75-.75zm0 3.25h4.5c.41421 0 .75.33579.75.75s-.33579.75-.75.75h-4.5c-.41421 0-.75-.33579-.75-.75s.33579-.75.75-.75z"/></svg>
